<svg xmlns="http://www.w3.org/2000/svg" viewBox="0 0 26.79 20.34">
    <defs>
        <style>.cls-1{fill:#1dbbeb;}</style>
    </defs>
    <title>twitter</title>
    <g id="Layer_2" data-name="Layer 2">
        <g id="Layer_1-2" data-name="Layer 1">
            <path id="Icon_-_twitter" data-name="Icon - twitter" class="cls-1"
                  d="M26.79,2.44a10,10,0,0,1-3.06.82A5.6,5.6,0,0,0,26,.45a9.3,9.3,0,0,1-3.45,1.14h0a5.69,5.69,0,0,0-4-1.59,5.36,5.36,0,0,0-5.53,5.16,5,5,0,0,0,.14,1.16h0A15.79,15.79,0,0,1,1.8,1,5,5,0,0,0,3.48,7.78a3.73,3.73,0,0,1-2.41-.59c0,1.8.89,4.19,4.26,5A4.62,4.62,0,0,1,3,12.4c.18,1.52,2.45,3.51,4.94,3.51a10.25,10.25,0,0,1-8,2.14,17.45,17.45,0,0,0,8.65,2.29c8.91,0,15.84-6.76,15.47-15.09,0,0,0,0,0,0s0,0,0-.07,0,0,0-.07A9.28,9.28,0,0,0,26.79,2.44Z"/>
        </g>
    </g>
</svg>